<?xml version="1.0" encoding="utf-8"?>
<!-- Generator: Adobe Illustrator 24.1.2, SVG Export Plug-In . SVG Version: 6.00 Build 0)  -->
<svg version="1.1" id="Layer_1" xmlns="http://www.w3.org/2000/svg" xmlns:xlink="http://www.w3.org/1999/xlink" x="0px" y="0px"
	 viewBox="0 0 35.66 42.38" style="enable-background:new 0 0 35.66 42.38;" xml:space="preserve">
<style type="text/css">
	.st0{fill:#FFFFFF;}
</style>
<g>
	<g>
		<path class="st0" d="M23.07,10.76c0.05,0.02,0.08,0.08,0.05,0.13l0,0c0.02-0.01,0.05-0.01,0.07,0c0.05,0.02,0.07,0.07,0.06,0.12
			c0.04,0.01,0.08,0.02,0.13,0.02c0.03-0.04,0.08-0.06,0.13-0.04c0.02,0.01,0.04,0.03,0.05,0.05c0.16,0,0.32-0.04,0.47-0.1
			c-0.05-0.01-0.11-0.02-0.18-0.05c-0.13-0.05-0.27-0.15-0.38-0.33c-0.08-0.13-0.13-0.27-0.13-0.43l0-0.01c0-0.01,0-0.02,0-0.02
			c0-0.19,0.06-0.39,0.18-0.6c0.04-0.06,0.08-0.14,0.15-0.2c0.06-0.06,0.14-0.11,0.23-0.11c0.06,0,0.12,0.02,0.18,0.07
			c0.01-0.07,0.04-0.12,0.08-0.16c0.05-0.04,0.11-0.06,0.17-0.06c0.02,0,0.04,0,0.07,0.01l0.01,0c0.05,0.01,0.1,0.03,0.15,0.05
			c0.05,0.02,0.1,0.05,0.14,0.09c-0.02-0.05-0.05-0.09-0.07-0.13c-0.03,0.01-0.05,0-0.08-0.01c-0.05-0.03-0.06-0.09-0.04-0.13
			c-0.03-0.03-0.05-0.06-0.08-0.08c-0.03,0.03-0.08,0.04-0.12,0.02c-0.02-0.01-0.04-0.04-0.05-0.06c-0.03,0.02-0.08,0.02-0.11,0
			c-0.03-0.02-0.05-0.06-0.05-0.1c-0.03,0.02-0.07,0.02-0.1,0c-0.04-0.03-0.06-0.08-0.04-0.12c-0.03,0.02-0.07,0.02-0.11,0
			c-0.02-0.01-0.03-0.03-0.04-0.05c-0.59-0.12-1.19,0.18-1.43,0.76c-0.21,0.51-0.07,1.07,0.3,1.43c0.03-0.03,0.07-0.04,0.11-0.03
			c0.03,0.01,0.05,0.03,0.06,0.06c0.03-0.01,0.06-0.02,0.09-0.01c0.03,0.01,0.05,0.03,0.06,0.06C23,10.76,23.04,10.75,23.07,10.76z"
			/>
		<path class="st0" d="M24.55,9.22c-0.05-0.03-0.11-0.06-0.16-0.07l-0.01,0c-0.02-0.01-0.05-0.01-0.07-0.01
			c-0.04,0-0.08,0.01-0.1,0.03c-0.03,0.02-0.05,0.06-0.05,0.13v0l0,0.02c0,0.04,0.01,0.05,0.04,0.07c0.02,0.02,0.06,0.03,0.11,0.03
			c0.06,0,0.12-0.02,0.16-0.04c0.04-0.03,0.09-0.04,0.13-0.04c0.04,0,0.08,0.01,0.11,0.02c0-0.01,0-0.01-0.01-0.02
			c0-0.01-0.02-0.03-0.04-0.06C24.62,9.27,24.58,9.24,24.55,9.22z"/>
		<path class="st0" d="M23.78,10.55c-0.01-0.01-0.02-0.03-0.02-0.05c0-0.04,0.02-0.06,0.04-0.09c0.02-0.03,0.05-0.05,0.08-0.09
			c0.05-0.05,0.1-0.11,0.15-0.19l0.01-0.01c0.01-0.02,0.02-0.03,0.03-0.05c0.05-0.09,0.08-0.2,0.08-0.32c0-0.11-0.02-0.23-0.08-0.35
			l-0.02-0.04c-0.07-0.08-0.11-0.09-0.16-0.09c-0.06,0-0.11,0.03-0.16,0.08c-0.05,0.05-0.1,0.12-0.13,0.17
			c-0.11,0.2-0.17,0.39-0.16,0.56c0,0.01,0,0.02,0,0.02l0,0.01c0.01,0.13,0.04,0.26,0.12,0.37c0.1,0.16,0.23,0.25,0.34,0.29
			c0.11,0.05,0.21,0.05,0.24,0.05c0,0,0.01,0,0.01,0l0.03-0.02c-0.08-0.02-0.15-0.07-0.22-0.13C23.87,10.65,23.81,10.59,23.78,10.55
			z"/>
		<path class="st0" d="M24.5,9.46c-0.06,0.04-0.14,0.06-0.21,0.06c-0.03,0-0.06,0-0.09-0.01c0.03,0.08,0.04,0.17,0.04,0.25
			c0,0.13-0.03,0.26-0.09,0.37c0,0,0,0,0,0l-0.01,0.01c-0.05,0.09-0.11,0.16-0.17,0.22c-0.05,0.06-0.1,0.11-0.11,0.13l0,0.01
			c0.02,0.03,0.08,0.08,0.14,0.14c0.07,0.05,0.15,0.1,0.2,0.11c0.08,0.02,0.1,0.02,0.11,0.02l0.01,0l0,0
			c0.07-0.06,0.14-0.13,0.2-0.2c-0.07-0.09-0.12-0.25-0.05-0.4c0.08-0.16,0.23-0.21,0.32-0.22c0.02-0.14,0.02-0.29-0.01-0.43
			L24.74,9.5l0,0l0,0l-0.01-0.01c-0.01-0.01-0.02-0.01-0.04-0.02c-0.03-0.02-0.07-0.03-0.11-0.03C24.55,9.44,24.53,9.45,24.5,9.46z
			 M24.38,10.56c-0.04,0.1-0.15,0.15-0.25,0.11c-0.05-0.02-0.09-0.06-0.11-0.12c0.01,0.03,0.03,0.05,0.05,0.07l0-0.07l-0.06-0.04
			c0-0.01,0-0.01,0-0.02l0.07-0.03l0.02-0.09l0.06,0.07l0.09,0l-0.05,0.08l0.03,0.09l-0.09-0.03l-0.06,0.05c0,0,0.01,0,0.01,0.01
			c0.08,0.03,0.16,0,0.19-0.08c0.03-0.08,0-0.16-0.08-0.2c-0.08-0.03-0.16,0-0.19,0.08c0,0.01-0.01,0.02-0.01,0.03
			c0-0.02,0.01-0.04,0.01-0.06c0.04-0.1,0.15-0.15,0.25-0.11C24.37,10.35,24.42,10.46,24.38,10.56z M24.4,10.25l-0.11-0.21
			l0.18,0.07L24.4,10.25z M24.75,9.77c-0.04,0.1-0.15,0.15-0.25,0.11c-0.05-0.02-0.09-0.06-0.11-0.12c0.01,0.03,0.03,0.05,0.05,0.07
			l0-0.07l-0.06-0.04c0-0.01,0-0.01,0-0.02l0.07-0.03l0.02-0.09l0.06,0.07l0.09,0l-0.05,0.08l0.03,0.09l-0.09-0.03l-0.06,0.05
			c0,0,0.01,0,0.01,0.01c0.08,0.03,0.16,0,0.19-0.08c0.03-0.08,0-0.16-0.08-0.2c-0.08-0.03-0.16,0-0.19,0.08
			c0,0.01-0.01,0.02-0.01,0.03c0-0.02,0.01-0.04,0.01-0.06c0.04-0.1,0.15-0.15,0.25-0.11C24.75,9.56,24.79,9.67,24.75,9.77z"/>
		<path class="st0" d="M19.48,10.62c-0.02,0.01-0.04,0.03-0.06,0.06c-0.02,0.03-0.02,0.05-0.02,0.07c0,0.03,0.01,0.06,0.04,0.1
			c0,0.01,0.01,0.01,0.02,0.02l0.16-0.26c-0.02,0-0.04-0.01-0.06-0.01C19.53,10.61,19.5,10.61,19.48,10.62z"/>
		<polygon class="st0" points="17.8,7.28 17.8,7.28 17.91,7.35 18.19,6.89 17.52,6.47 17.24,6.94 17.71,7.23 		"/>
		<path class="st0" d="M19.29,11.15c-0.04-0.03-0.07-0.07-0.1-0.11c-0.06-0.08-0.11-0.18-0.11-0.29c0-0.08,0.02-0.16,0.07-0.23
			c0.05-0.08,0.11-0.14,0.18-0.17c0.07-0.04,0.15-0.05,0.22-0.05c0.08,0,0.16,0.02,0.23,0.05l0.09-0.15l0.27-0.44l0.7-1.15
			c0.04-0.05,0.08-0.11,0.12-0.16c-0.11-0.05-0.23-0.07-0.35-0.07c-0.32,0-0.64,0.16-0.82,0.46l-0.3,0.5l-0.27,0.44l-0.24,0.39
			c-0.24,0.4-0.16,0.91,0.17,1.22L19.29,11.15z"/>
		<path class="st0" d="M18.61,17.27l0.41-0.68c0.08-0.13,0.21-0.2,0.35-0.2c0.07,0,0.15,0.02,0.21,0.06c0.13,0.08,0.2,0.21,0.2,0.35
			c0,0.07-0.02,0.15-0.06,0.22l-0.04-0.03l0.04,0.03l-0.41,0.68c0.32,0.13,0.66,0.2,1,0.2c0.9,0,1.77-0.46,2.28-1.29
			c0.01-0.01,0.02-0.03,0.03-0.05l0.08-0.13l0,0l2.79-4.6l0,0l0.07-0.12c0.26-0.44,0.39-0.92,0.39-1.39c0-0.91-0.45-1.8-1.27-2.3
			c-0.44-0.27-0.92-0.4-1.39-0.4c-0.89,0-1.76,0.45-2.27,1.27l-0.08,0.13l0,0l-1.24,2.04c0.61,0.38,2.41,1.5,2.92,1.82
			c0.07,0.05,0.1,0.15,0.05,0.22c-0.05,0.07-0.14,0.1-0.22,0.05l-0.2-0.13l-0.66,1.08c0.08,0.05,0.15,0.09,0.2,0.13
			c0.07,0.05,0.1,0.14,0.05,0.22c-0.05,0.07-0.15,0.1-0.22,0.05c-0.51-0.32-2.3-1.43-2.91-1.82l-0.57,0.93l0,0l-0.08,0.13
			c-0.01,0.02-0.02,0.04-0.03,0.05c-0.27,0.44-0.39,0.93-0.39,1.41C17.65,15.98,17.98,16.75,18.61,17.27z M25.01,11.72l-0.88,1.45
			c-0.09,0.16-0.3,0.21-0.45,0.11s-0.2-0.3-0.11-0.46l0.88-1.45c0.09-0.16,0.3-0.21,0.45-0.11S25.11,11.56,25.01,11.72z M22.26,9.25
			c0.21-0.53,0.71-0.87,1.27-0.87h0c0.17,0,0.35,0.03,0.51,0.1c0.7,0.28,1.04,1.09,0.76,1.8c-0.21,0.53-0.71,0.87-1.27,0.87
			c-0.17,0-0.35-0.03-0.51-0.1C22.32,10.77,21.98,9.96,22.26,9.25z M21.9,15.74l0.88-1.45c0.09-0.16,0.3-0.21,0.45-0.11
			s0.2,0.3,0.11,0.46l-0.88,1.45c-0.09,0.16-0.3,0.21-0.45,0.11C21.86,16.1,21.81,15.89,21.9,15.74z"/>
		<path class="st0" d="M18.64,12.23l0.16-0.26c-0.02-0.01-0.04-0.01-0.06-0.01c-0.03,0-0.06,0.01-0.08,0.02
			c-0.02,0.01-0.04,0.03-0.06,0.06c-0.02,0.03-0.02,0.05-0.02,0.07c0,0.03,0.01,0.06,0.04,0.1C18.62,12.21,18.63,12.22,18.64,12.23z
			"/>
		<path class="st0" d="M20.47,13.39c0.09,0.06,0.18,0.11,0.27,0.17l0.66-1.08c-0.09-0.06-0.18-0.11-0.27-0.17L20.47,13.39z"/>
		<path class="st0" d="M21.98,12.84c-0.1-0.06-0.2-0.13-0.31-0.2l-0.66,1.08c0.11,0.07,0.22,0.14,0.31,0.2L21.98,12.84z"/>
		<path class="st0" d="M19.64,11.38c-0.04-0.02-0.07-0.05-0.11-0.07l-0.66,1.08c0.03,0.02,0.07,0.04,0.1,0.06L19.64,11.38z"/>
		<path class="st0" d="M19.25,12.63c0.12,0.07,0.25,0.15,0.38,0.24l0.66-1.08c-0.14-0.09-0.27-0.17-0.38-0.24L19.25,12.63z"/>
		<path class="st0" d="M19.9,13.04c0.1,0.06,0.19,0.12,0.29,0.18l0.66-1.08c-0.1-0.06-0.2-0.12-0.29-0.18L19.9,13.04z"/>
		<path class="st0" d="M17.75,19.63l0.62-0.72l-0.41-0.26l-0.37,0.88C17.51,19.72,17.61,19.79,17.75,19.63z"/>
		<path class="st0" d="M19.64,16.97c0.03-0.05,0.05-0.11,0.05-0.16c0-0.11-0.05-0.21-0.15-0.27c-0.05-0.03-0.11-0.05-0.16-0.05
			c-0.1,0-0.21,0.05-0.27,0.15l-1.04,1.71l0.53,0.33L19.64,16.97z"/>
	</g>
	<g>
		<path class="st0" d="M4.14,39.99v2.39H3.82v-2.39H4.14z"/>
		<path class="st0" d="M8.11,41.18c0,0.25-0.08,0.48-0.2,0.67c-0.13,0.19-0.31,0.34-0.53,0.43c-0.14,0.06-0.3,0.09-0.47,0.09h-0.8
			v-2.39l0.8,0c0.25,0,0.48,0.08,0.67,0.2c0.19,0.13,0.34,0.31,0.43,0.53C8.08,40.86,8.11,41.02,8.11,41.18z M7.8,41.18
			c0-0.18-0.06-0.35-0.15-0.5c-0.1-0.14-0.23-0.25-0.39-0.32c-0.11-0.04-0.22-0.07-0.35-0.07H6.44v1.77h0.48
			c0.18,0,0.35-0.06,0.5-0.15c0.14-0.1,0.25-0.23,0.32-0.39C7.78,41.42,7.8,41.3,7.8,41.18z"/>
		<path class="st0" d="M20.73,40.31h-0.64v2.07h-0.32v-2.07h-0.64v-0.32h0.64v0h0.32v0h0.64V40.31z"/>
		<path class="st0" d="M31.35,39.99v2.39h-0.32v-1.76l-0.8,1.39l-0.79-1.36v1.73h-0.32v-2.39h0.31l0.8,1.38l0.79-1.38h0H31.35z"/>
		<path class="st0" d="M22.81,40.31v0.51h1v0.3h-1v0.94h1.37v0.32h-1.69v-2.39l1.69,0v0.32H22.81z"/>
		<path class="st0" d="M10.13,40.31v0.51h1v0.3h-1v0.94h1.37v0.32H9.81v-2.39l1.69,0v0.32H10.13z"/>
		<path class="st0" d="M27.4,42.38h0.36l-0.83-2.41l-0.32,0l-0.83,2.41h0.36l0.25-0.72h0.77L27.4,42.38z M26.48,41.36l0.28-0.82
			l0.28,0.82H26.48z"/>
		<path class="st0" d="M14.81,42.38h0.36l-0.83-2.41l-0.32,0l-0.83,2.41h0.36l0.25-0.72h0.77L14.81,42.38z M13.9,41.36l0.28-0.82
			l0.28,0.82H13.9z"/>
	</g>
	<g>
		<path class="st0" d="M17.83,0C7.98,0,0,7.98,0,17.83c0,9.85,7.98,17.83,17.83,17.83c9.85,0,17.83-7.98,17.83-17.83
			C35.66,7.98,27.68,0,17.83,0z M31,21.71c0.11,0,0.2,0.09,0.2,0.21c0,0.11-0.09,0.21-0.2,0.21c-0.11,0-0.2-0.09-0.2-0.21
			C30.8,21.81,30.89,21.71,31,21.71z M29.78,10.11L29.78,10.11l0.05-0.05l0.26,0.26l0.25-0.25l0.01-0.01l0.01,0.01l0.04,0.04
			l-0.26,0.26l0.26,0.26l-0.01,0.01l-0.04,0.04l-0.26-0.26l-0.26,0.26l-0.01-0.01l-0.04-0.04l0.26-0.26L29.78,10.11z M28.76,24.46
			V24.4h0.36v-0.37h0.01h0.05h0.01v0.37h0.36v0.01v0.06H29.2v0.37h-0.01h-0.06v-0.37h-0.36V24.46z M27.38,19.36V19.3h0.36v-0.37
			h0.01h0.05h0.01v0.37h0.36v0.01v0.06h-0.36v0.37h-0.01h-0.06v-0.37h-0.36V19.36z M26.49,14.34v-0.06h0.36v-0.37h0.01h0.05h0.01
			v0.37h0.36v0.01v0.06h-0.36v0.37h-0.01h-0.06v-0.37h-0.36V14.34z M25.22,5.05h0.36V4.68h0.05v0.37h0.36v0.05h-0.36v0.37h-0.05
			V5.09h-0.36V5.05z M20.95,4.84c0.11,0,0.19,0.09,0.19,0.19c0,0.11-0.09,0.19-0.19,0.19c-0.11,0-0.19-0.09-0.19-0.19
			C20.76,4.93,20.84,4.84,20.95,4.84z M15.47,12.37L15.47,12.37c0-0.11,0.09-0.21,0.2-0.21h0h0h0v0c0.11,0,0.2,0.09,0.2,0.2h0v0v0
			c0,0.11-0.09,0.21-0.2,0.21h0h0C15.56,12.58,15.47,12.48,15.47,12.37L15.47,12.37z M14.58,4.75V4.69h0.33V4.36h0.01h0.05h0.01
			v0.33h0.33V4.7v0.06h-0.33V5.1h-0.01h-0.06V4.76h-0.33V4.75z M13.96,23.38l0.25-0.41c0.03-0.06,0.11-0.07,0.16-0.04
			c0.06,0.04,0.07,0.11,0.04,0.17l-0.25,0.41c-0.03,0.06-0.11,0.07-0.16,0.04C13.94,23.51,13.92,23.44,13.96,23.38z M13.85,17.16
			L13.85,17.16l0.05,0.05l-0.26,0.26l0.26,0.26l-0.01,0.01l-0.04,0.04l-0.26-0.26l-0.26,0.26l-0.01-0.01l-0.04-0.04l0.26-0.26
			l-0.26-0.26l0.01-0.01l0.04-0.04l0.26,0.26L13.85,17.16L13.85,17.16z M13.05,9.79L13.05,9.79l0.05-0.05l0.26,0.26l0.26-0.26
			l0.01,0.01l0.04,0.04l-0.26,0.26l0.26,0.26l-0.01,0.01l-0.04,0.03l-0.01,0.01l-0.26-0.26l-0.26,0.26l-0.01-0.01l-0.04-0.04
			l0.26-0.26L13.05,9.79z M11.72,23c0.11,0,0.2,0.09,0.2,0.21c0,0.11-0.09,0.21-0.2,0.21c-0.11,0-0.2-0.09-0.2-0.21
			C11.52,23.09,11.61,23,11.72,23z M10.03,6.01L10.03,6.01l0.05-0.05l0.26,0.26l0.25-0.25l0.01-0.01l0.01,0.01l0.04,0.04l-0.26,0.26
			l0.26,0.26l-0.01,0.01L10.6,6.59l-0.26-0.26l-0.26,0.26l-0.01-0.01l-0.04-0.04l0.26-0.26L10.03,6.01z M9.88,19.52
			c0,0.11-0.09,0.21-0.2,0.21c-0.11,0-0.2-0.09-0.2-0.21c0-0.11,0.09-0.21,0.2-0.21C9.78,19.31,9.88,19.4,9.88,19.52z M8.98,13.44
			v-0.06h0.36v-0.37h0.01h0.06v0.37h0.35h0.01v0.01v0.06H9.42v0.37H9.41H9.34v-0.37H8.98V13.44z M6.57,16.63L6.57,16.63l0.05-0.05
			l0.26,0.26l0.25-0.25l0.01-0.01l0.01,0.01l0.04,0.04l-0.26,0.26l0.26,0.26l-0.01,0.01L7.13,17.2l-0.26-0.26L6.62,17.2L6.61,17.2
			l-0.04-0.04l0.26-0.26L6.57,16.63z M5.11,10.1v-0.06h0.36V9.67h0.01h0.05h0.01v0.37h0.36v0.01v0.06H5.55v0.37H5.53H5.47v-0.37
			H5.11V10.1z M29.75,29.75c-3.04,3.04-7.24,4.92-11.88,4.92c-4.35,0-8.31-1.65-11.29-4.36c-3.38-3.13-5.5-7.61-5.5-12.58
			c0-0.13,0-0.25,0.01-0.37c0.08-2.77,0.84-5.37,2.11-7.65c0.15,0.24,0.27,0.52,0.34,0.82c0.18,0.79-0.02,1.58-0.47,2.17
			c0.04-0.01,0.08-0.02,0.12-0.03c1.08-0.25,2.16,0.43,2.41,1.53c0.25,1.09-0.43,2.19-1.51,2.44c-0.02,0-0.04,0.01-0.06,0.01
			c0.12,0.13,0.21,0.28,0.25,0.47c0.09,0.42-0.09,0.83-0.42,1.05c0.55,0.25,0.99,0.75,1.14,1.4c0.07,0.32,0.07,0.63,0,0.93
			c2.66-0.4,5.23,1.34,5.84,4.04c0.41,1.79-0.14,3.59-1.3,4.83c1.77-0.85,3.1-2.51,4.17-4.25c2.09-3.41,1.77-2.85,4.07-6.58
			l-0.41-0.25l-2.61,4.28c-0.03,0.05-0.1,0.07-0.15,0.03c-0.05-0.03-0.07-0.1-0.03-0.16l2.61-4.27l-0.94-0.58
			c0,0,0.31-0.62,0.84-0.47l1.3,0.35c-0.65-0.58-1-1.4-1-2.25c0-0.51,0.13-1.02,0.4-1.49l0,0l0.73-1.2
			c-0.04-0.03-0.07-0.07-0.1-0.11c-0.06-0.08-0.11-0.18-0.11-0.29c0-0.08,0.02-0.16,0.07-0.23c0.05-0.08,0.11-0.14,0.18-0.17
			c0.07-0.04,0.15-0.05,0.22-0.05c0.08,0,0.16,0.02,0.23,0.05L19,11.64c-0.47-0.4-0.59-1.09-0.27-1.63l0.24-0.4l-1.48-0.93
			c-0.22-0.14-0.37-0.35-0.43-0.58c-0.04-0.13-0.04-0.26-0.03-0.4c0.02-0.13,0.06-0.27,0.14-0.39l0.09-0.14L17.13,7.1L16.97,7
			l0.1-0.17l0.28-0.46l0.1-0.17l0.17,0.1l0.67,0.42l0.17,0.1l-0.1,0.17l-0.28,0.46l-0.1,0.17l-0.17-0.1l-0.11-0.07l-0.09,0.14
			c-0.04,0.06-0.06,0.12-0.07,0.19c-0.01,0.06,0,0.13,0.01,0.19c0.03,0.11,0.1,0.21,0.21,0.28l1.48,0.93l0.3-0.5
			c0.23-0.38,0.63-0.61,1.07-0.61c0.19,0,0.38,0.05,0.55,0.13c0.56-0.58,1.33-0.89,2.12-0.89c0.53,0,1.06,0.14,1.55,0.44
			c0.91,0.57,1.41,1.55,1.41,2.55c0,0.48-0.12,0.97-0.36,1.42l0.01,0l-3.1,5.11l0,0c-0.56,0.87-1.51,1.36-2.48,1.36
			c-0.37,0-0.75-0.07-1.11-0.22l0.89,1.02c0.37,0.41-0.04,0.96-0.04,0.96l-1.04-0.65l-4.31,7.11c-0.03,0.05-0.1,0.07-0.15,0.04
			c-0.05-0.03-0.07-0.1-0.04-0.15l4.31-7.11l-0.27-0.17c-2.31,3.76-1.98,3.19-4.09,6.61c-1.42,2.31-2.51,5-1.57,7.65
			c-0.21-3.05,1.75-5.91,4.77-6.69c1.56-0.4,3.12-0.19,4.45,0.5c0.23-1.26,1.16-2.33,2.46-2.67c1.78-0.46,3.59,0.62,4.06,2.41
			c0.21-0.16,0.46-0.29,0.73-0.36c0.5-0.13,1-0.06,1.42,0.16c0.05-0.5,0.4-0.94,0.9-1.07c0.36-0.09,0.73-0.01,1.01,0.2
			C31.92,27.23,30.92,28.58,29.75,29.75z M23.56,22.88v-0.01v-0.06h0.36v-0.37h0.01h0.05H24v0.37h0.36v0.01v0.06H24v0.37h-0.01
			h-0.06v-0.37H23.56z M22.43,19.49c0,0.11-0.09,0.21-0.2,0.21s-0.2-0.09-0.2-0.21c0-0.11,0.09-0.21,0.2-0.21
			C22.34,19.29,22.43,19.38,22.43,19.49z M19.84,24.91L19.84,24.91l-0.05,0.05l-0.26-0.26l-0.26,0.26l-0.01-0.01l-0.04-0.04
			l0.26-0.26l-0.26-0.26l0.01-0.01l0.04-0.04l0.26,0.26l0.25-0.25l0.01-0.01l0.01,0.01l0.04,0.04l-0.26,0.26L19.84,24.91z
			 M14.37,26.87c0,0.06-0.05,0.11-0.11,0.11c-0.06,0-0.11-0.05-0.11-0.11c0-0.06,0.05-0.11,0.11-0.11
			C14.32,26.75,14.37,26.81,14.37,26.87z M33.04,16.6h-0.36v0.37h-0.01h-0.06V16.6h-0.36v-0.01v-0.06h0.36v-0.37h0.01h0.06v0.37
			h0.36v0.01V16.6z"/>
	</g>
</g>
</svg>
