<svg id="Layer_1" data-name="Layer 1" xmlns="http://www.w3.org/2000/svg" viewBox="0 0 186.95 57.62"><defs><style>.cls-1{fill:#fff;}</style></defs><path class="cls-1" d="M344.51,326.42a28.09,28.09,0,0,0,7.53-44.2,29.74,29.74,0,0,0-8.88-5.64,26.64,26.64,0,0,1,8.59,42.07,24.72,24.72,0,0,1-39.74,0,26.12,26.12,0,0,1-3.84-5.5,26.72,26.72,0,0,1,11.37-36.06c.37-.2.76-.35,1.15-.53a29.93,29.93,0,0,0-14,11.64,28.14,28.14,0,0,0,37.81,38.23Z" transform="translate(-301.98 -276.55)"/><path class="cls-1" d="M324.74,325.38a24.86,24.86,0,0,0,19.05-1.67,26.49,26.49,0,0,0,3.29-2.08,23.39,23.39,0,1,0-35.1-5.52A24.82,24.82,0,0,0,324.74,325.38Z" transform="translate(-301.98 -276.55)"/><path class="cls-1" d="M361.74,303.32a29.87,29.87,0,0,1-59.71-.11c0,.36,0,.7,0,1.06a29.91,29.91,0,0,0,59.81,0C361.79,304,361.75,303.63,361.74,303.32Z" transform="translate(-301.98 -276.55)"/><path class="cls-1" d="M354.41,290a25,25,0,0,0-46,4,25.08,25.08,0,0,0-1.14,6.88,24.78,24.78,0,1,1,48.94,7.55A24.81,24.81,0,0,0,354.41,290Z" transform="translate(-301.98 -276.55)"/><path class="cls-1" d="M394.9,299.72v12.41q0,4.51,3.91,4.51a5.31,5.31,0,0,0,3.12-1,4.64,4.64,0,0,0,1.87-2.27V299.72h3.45v19.46H403.8v-2.69a5.41,5.41,0,0,1-2.33,2.1,7.2,7.2,0,0,1-3.42,1,6.34,6.34,0,0,1-4.9-1.83,7.42,7.42,0,0,1-1.7-5.22V299.72Z" transform="translate(-301.98 -276.55)"/><path class="cls-1" d="M433.55,319.18V306.86c0-3.06-1.32-4.59-4-4.59a4,4,0,0,0-2.34.77,4.13,4.13,0,0,0-1.49,1.75v14.39h-3.45V305.36a2.72,2.72,0,0,0-1.08-2.27,4.58,4.58,0,0,0-2.86-.82,3.92,3.92,0,0,0-2.21.8,4.9,4.9,0,0,0-1.66,1.76v14.35H411V299.72h2.25l1.15,2.26a6,6,0,0,1,5-2.62q4.18,0,5.85,2.6a4.44,4.44,0,0,1,2.16-1.85,7.53,7.53,0,0,1,3.25-.75,6.05,6.05,0,0,1,4.67,1.79,7.13,7.13,0,0,1,1.65,5v13Z" transform="translate(-301.98 -276.55)"/><path class="cls-1" d="M442.28,319.18V302.63h-2.67v-2.91h6.12v19.46Zm1.89-26.81a2,2,0,0,1,1.51.63,2,2,0,0,1,.63,1.49,2.06,2.06,0,0,1-.63,1.52,2,2,0,0,1-1.51.63,2,2,0,0,1-1.5-.63,2.14,2.14,0,0,1,0-3A2,2,0,0,1,444.17,292.37Z" transform="translate(-301.98 -276.55)"/><path class="cls-1" d="M462.07,319.18V307.86c0-2.07-.31-3.52-.94-4.35a3.65,3.65,0,0,0-3.13-1.24,5,5,0,0,0-2.47.71,5.47,5.47,0,0,0-2,1.74v14.46H450.1V299.72h2.36l1.09,2.51a6,6,0,0,1,5.58-2.87q6.39,0,6.39,7.78v12Z" transform="translate(-301.98 -276.55)"/><path class="cls-1" d="M479.78,316.94q-2.07,2.6-6.34,2.6a5.44,5.44,0,0,1-4-1.66,5.59,5.59,0,0,1-1.68-4.13,6.16,6.16,0,0,1,2.59-5,10.36,10.36,0,0,1,6.6-2,7.57,7.57,0,0,1,2.47.47q0-4.73-4.21-4.72a6.74,6.74,0,0,0-5,1.74l-1.45-2.89a8.54,8.54,0,0,1,2.71-1.37,10.68,10.68,0,0,1,3.32-.57q4.23,0,6.14,1.93t1.92,6.12v7q0,2.56,1.53,3.42v1.72a6.34,6.34,0,0,1-3.15-.6A3.36,3.36,0,0,1,479.78,316.94Zm-.33-7.32a12.55,12.55,0,0,0-2.29-.36,6.61,6.61,0,0,0-4.27,1.34,4,4,0,0,0-1.65,3.18c0,2,1.19,3,3.58,3a5.87,5.87,0,0,0,4.63-2.49Z" transform="translate(-301.98 -276.55)"/><path class="cls-1" d="M382,319.21a6.5,6.5,0,0,1-5-1.8,7.84,7.84,0,0,1-2-5.51V293.09h3.55V312a4.48,4.48,0,0,0,1,3,3.51,3.51,0,0,0,2.72.87l8,0v3.32l-8.06,0Z" transform="translate(-301.98 -276.55)"/><path class="cls-1" d="M439.3,332.74h.52v-7l6.85,7.16v-8.35h-.53v7.07l-6.84-7.16Zm-6-7.76a3.7,3.7,0,1,1-3.68,3.7,3.7,3.7,0,0,1,3.68-3.7m0-.5a4.2,4.2,0,1,0,4.22,4.19,4.23,4.23,0,0,0-4.22-4.19m-6,.11h-.53v8.15h.53Zm-3.93.48h2.13v-.48h-4.74v.48h2.09v7.67h.52Zm-4.24,4.5H416.1l1.55-3.86Zm.2.49,1.07,2.68h.6l-3.4-8.4-3.42,8.4h.59l1.09-2.68Zm-10.92,2.19v-7.18h1.08a3.59,3.59,0,1,1,0,7.18Zm-.52.49h1.61a3.93,3.93,0,0,0,3-1.14,4.21,4.21,0,0,0,0-5.89,3.94,3.94,0,0,0-3-1.12h-1.61Zm-9.57,0h.52v-7l6.85,7.16v-8.35h-.53v7.07l-6.84-7.16Zm-7.21-8.15h-.53v5.24a2.79,2.79,0,0,0,.43,1.93,3,3,0,0,0,4.68,0,2.79,2.79,0,0,0,.43-1.93v-5.24h-.53v5.09a3,3,0,0,1-.29,1.75,2.39,2.39,0,0,1-1.94.94,2.42,2.42,0,0,1-2-.94,3,3,0,0,1-.29-1.75Zm-6.5.39a3.7,3.7,0,1,1-3.68,3.7,3.7,3.7,0,0,1,3.68-3.7m0-.5a4.2,4.2,0,1,0,4.21,4.19,4.24,4.24,0,0,0-4.21-4.19m-5.45.59v-.48h-3.29v8.15h.52v-4.22h2.69V328h-2.69v-3Z" transform="translate(-301.98 -276.55)"/><path class="cls-1" d="M483.75,299.55h2.1v.23h-.92v2.65h-.27v-2.65h-.91Z" transform="translate(-301.98 -276.55)"/><path class="cls-1" d="M486.22,302.43v-2.88h.42l.94,2.54h0l.93-2.54h.41v2.88h-.27v-2.57h0l-.94,2.57h-.26l-.95-2.57h0v2.57Z" transform="translate(-301.98 -276.55)"/></svg>