<?xml version="1.0" encoding="utf-8"?>
<!-- Generator: Adobe Illustrator 24.1.2, SVG Export Plug-In . SVG Version: 6.00 Build 0)  -->
<svg version="1.1" id="Layer_1" xmlns="http://www.w3.org/2000/svg" xmlns:xlink="http://www.w3.org/1999/xlink" x="0px" y="0px"
	 viewBox="0 0 38.77 34.63" style="enable-background:new 0 0 38.77 34.63;" xml:space="preserve">
<style type="text/css">
	.st0{fill:#FFFFFF;}
	.st1{fill-rule:evenodd;clip-rule:evenodd;fill:#FFFFFF;}
</style>
<g>
	<g>
		<path class="st0" d="M10.59,29.08l0.65-0.81v-3.86l-4.29,2.37L0,22.98l0.65-0.87V9.87L0.01,9.13l0.27-0.2
			c0.01,0,1.28-0.97,2.2-1.49c1.26-0.72,3.34-1.44,3.34-1.45l0.42-0.15v14.2l0.35,0.22l0.34,0.21l0.33-0.21l0.35-0.22V6.25V5.8
			l0.42,0.15c0.01,0,1.51,0.54,2.44,1.03c0.24,0.13,0.53,0.3,0.77,0.44V5.34l-0.61-0.96l0.23-0.18c0.01-0.01,1.64-1.25,3.62-2.26
			c2.45-1.24,4.78-1.91,4.79-1.92L19.35,0l0.08,0.02c0.02,0.01,2.25,0.58,4.8,1.92c2.04,1.08,3.6,2.25,3.6,2.26l0.23,0.17
			l-0.61,0.96v2.11c0.43-0.26,0.79-0.45,1.32-0.72c1.12-0.58,2.93-1.26,2.93-1.27l0.12-0.04l0.12,0.05c0.01,0,2.14,0.85,3.45,1.57
			c1.28,0.7,3.09,2.01,3.1,2.01l0.28,0.2l-0.65,0.74v12.13l0.65,0.87l-6.95,3.8l-4.47-2.38l0.01,3.86l0.78,0.8l-8.8,5.57
			L10.59,29.08z M11.88,28.49l-0.07,0.09l-0.28,0.35l7.83,4.96l7.8-4.94l-0.42-0.42l-0.01-5.17l5.1,2.71l6.01-3.29l-0.35-0.46V9.74
			l0.35-0.4c-0.56-0.39-1.83-1.26-2.75-1.77c-1.08-0.59-2.81-1.3-3.26-1.49c-0.41,0.16-1.85,0.73-2.75,1.2
			c-0.7,0.36-1.08,0.58-1.75,1l-0.48,0.3V5.16l0.39-0.62c-0.5-0.36-1.75-1.23-3.29-2.03c-2.19-1.15-4.15-1.73-4.57-1.85
			c-0.43,0.13-2.47,0.77-4.6,1.85c-1.48,0.75-2.78,1.66-3.29,2.03l0.39,0.62v3.42l-0.49-0.31c0,0-0.73-0.47-1.21-0.72
			C9.61,7.24,8.75,6.9,8.25,6.7v13.68L8.1,20.48l-0.5,0.31l-0.67,0.42l-0.17-0.1l-0.5-0.31l-0.65-0.4V6.73
			C4.95,6.98,3.64,7.5,2.79,7.98C2.18,8.33,1.36,8.92,0.93,9.22l0.36,0.41v12.69L1.23,22.4l-0.28,0.38l6.01,3.28l4.92-2.72V28.49z
			 M16.44,26.86V17V7.07l0.15-0.09c0,0,0.78-0.47,1.33-0.73c0.52-0.24,1.32-0.51,1.33-0.51l0.1-0.03l0.1,0.04
			c0.01,0,0.82,0.3,1.34,0.55c0.56,0.27,1.34,0.77,1.34,0.77l0.15,0.09v5.7c0,0.28-0.07,0.51-0.13,0.68l0.16,0.13l3.87-1.36
			l0.01,4.93l0,4.92l-3.87-1.36l-0.16,0.13c0.06,0.17,0.13,0.4,0.13,0.68v5.17l-2.94,1.61L16.44,26.86z M17.07,17v9.48l2.28,1.19
			l2.31-1.27v-4.8c0-0.16-0.04-0.32-0.08-0.44l-0.08-0.18l-0.14-0.24l0.85-0.67l3.35,1.18l0-4.03l0-4.04l-3.35,1.18l-0.84-0.67
			l0.14-0.24c-0.01-0.01,0.16-0.29,0.16-0.62V7.51c-0.25-0.15-0.77-0.46-1.14-0.64c-0.37-0.18-0.94-0.4-1.18-0.49
			c-0.23,0.08-0.8,0.28-1.16,0.45c-0.36,0.17-0.87,0.46-1.12,0.6V17z M30.53,20.53v-9.12l1.3-0.64l1.12,0.55l-0.14,0.28l0.14-0.28
			l0.17,0.09v9.12l-1.3,0.66L30.53,20.53z M31.16,11.8v8.34l0.67,0.34l0.67-0.34V11.8l-0.67-0.33L31.16,11.8z"/>
		<path class="st0" d="M26.06,11.39V8.15V4.91c0,0-1.34-0.91-2.93-1.73c-1.7-0.88-3.77-1.4-3.77-1.4s-1.77,0.41-3.77,1.4
			c-1.63,0.81-2.85,1.73-2.85,1.73v11.9v11.9l3.35,2.08l3.27,2.08l3.27-2.08l3.27-2.08l0-2.83l0-2.83l-1.38-0.52l-1.38-0.52l0,2.7
			l0,2.7l-1.89,1.08l-1.89,1.08l-1.89-1.08l-1.89-1.08V16.97V6.53c0,0,0.54-0.43,1.56-0.92c1.03-0.5,2.22-0.92,2.22-0.92
			s1.13,0.34,2.22,0.92c1.01,0.53,1.55,0.92,1.55,0.92v2.87v2.87l1.38-0.45L26.06,11.39z"/>
		<path class="st0" d="M16.02,30.89l-3.41-2.12V16.8V4.84l0.05-0.04c0,0,1.23-0.93,2.87-1.75c2.01-0.99,3.79-1.41,3.8-1.41
			l0.03-0.01l0.03,0.01c0,0,2.08,0.52,3.79,1.41c1.59,0.83,2.94,1.74,2.94,1.74l0.06,0.04v3.31v3.24v0.09l-1.63,0.47l-1.54,0.5V9.41
			V6.6c-0.16-0.11-0.66-0.44-1.49-0.88c-0.97-0.51-1.95-0.83-2.16-0.9c-0.21,0.08-1.25,0.46-2.17,0.9c-0.83,0.4-1.33,0.76-1.48,0.87
			v10.37v10.36l1.83,1.04l1.82,1.04l1.83-1.04l1.83-1.04l0-2.62l0-2.88l1.55,0.58l1.46,0.55l0,2.91l0,2.9l-3.33,2.12L19.35,33
			L16.02,30.89z M12.86,16.8v11.83l3.29,2.04l3.2,2.04l3.2-2.04l3.21-2.04l0-2.76l0-2.74l-1.3-0.49l-1.21-0.46l0,2.52v2.77
			l-1.95,1.11l-1.95,1.11l-1.95-1.11l-1.95-1.11V16.97V6.48l0.05-0.04C15.51,6.43,16.05,6,17.08,5.5c1.04-0.5,2.23-0.92,2.23-0.92
			l0.04-0.01l0.04,0.01c0,0,1.13,0.34,2.24,0.93c1.02,0.54,1.56,0.93,1.57,0.93l0.05,0.04v2.94l0,2.7l1.22-0.39l1.45-0.42V8.15V4.97
			c-0.27-0.18-1.47-0.97-2.87-1.69c-1.56-0.81-3.45-1.32-3.71-1.38c-0.23,0.06-1.87,0.47-3.71,1.38c-1.43,0.71-2.54,1.51-2.78,1.69
			V16.8z"/>
		<path class="st1" d="M31.83,9.79c0,0-0.68,0.25-1.09,0.46c-0.44,0.22-1.09,0.63-1.09,0.63v5.88v4.21l1.09,0.63l1.09,0.63
			l1.09-0.63L34,20.97v-4.21v-5.88c0,0-0.65-0.4-1.09-0.62C32.5,10.06,31.83,9.79,31.83,9.79 M31.83,7.08c0,0,1.38,0.54,2.89,1.31
			c0.99,0.5,1.89,1.23,1.89,1.23v7.23v5.56l-2.39,1.3l-2.39,1.3l-2.39-1.3l-2.39-1.3v-5.56V9.57c0,0,0.92-0.65,1.89-1.18
			C30.36,7.63,31.83,7.08,31.83,7.08"/>
		<path class="st0" d="M29.38,23.82l-2.45-1.33v-5.64V9.5l0.05-0.04c0,0,0.93-0.66,1.9-1.19c1.43-0.77,2.9-1.32,2.91-1.32l0.04-0.02
			l0.05,0.02c0,0,1.39,0.54,2.9,1.32c1,0.51,1.91,1.24,1.91,1.24l0.05,0.04v7.29v5.64l-2.45,1.33l-2.45,1.33L29.38,23.82z
			 M27.17,16.85v5.49l2.33,1.26l2.33,1.27l2.33-1.27l2.32-1.26v-5.49V9.68c-0.19-0.15-0.98-0.75-1.82-1.18
			c-1.34-0.68-2.58-1.19-2.83-1.29c-0.25,0.1-1.56,0.6-2.83,1.28c-0.82,0.45-1.61,0.99-1.82,1.13V16.85z M30.67,21.71l-1.15-0.67
			v-4.28v-5.95l0.06-0.04c0,0,0.65-0.42,1.1-0.64c0.43-0.21,1.1-0.46,1.1-0.46l0.04-0.02l0.05,0.02c0,0,0.68,0.27,1.1,0.48
			c0.45,0.22,1.1,0.62,1.1,0.63l0.06,0.04v5.95v4.28l-1.15,0.67l-1.15,0.67L30.67,21.71z M29.77,16.76v4.14l1.03,0.6l1.03,0.6
			l1.03-0.6l1.03-0.6v-4.14v-5.81c-0.17-0.1-0.67-0.4-1.02-0.58c-0.34-0.17-0.88-0.39-1.04-0.45c-0.16,0.06-0.69,0.27-1.03,0.44
			c-0.35,0.17-0.85,0.49-1.02,0.59V16.76z M31.78,9.91l0.05-0.12L31.78,9.91z"/>
		<path class="st0" d="M9.13,8.13l0,7.34l0,5.51L8.04,21.6l-1.09,0.63L5.86,21.6l-1.09-0.63v-5.51V8.13c0,0-1.02,0.39-1.63,0.73
			C2.75,9.07,2.17,9.47,2.17,9.47v7.38v5.56l2.39,1.3l2.39,1.3l2.39-1.3l2.39-1.3l0-5.56l0-7.23c0,0-0.58-0.41-0.97-0.65
			C10.15,8.6,9.13,8.13,9.13,8.13"/>
		<path class="st1" d="M9.13,8.13l0,7.34l0,5.51L8.04,21.6l-1.09,0.63L5.86,21.6l-1.09-0.63v-5.51V8.13c0,0-1.02,0.39-1.63,0.73
			C2.75,9.07,2.17,9.47,2.17,9.47v7.38v5.56l2.39,1.3l2.39,1.3l2.39-1.3l2.39-1.3l0-5.56l0-7.23c0,0-0.58-0.41-0.97-0.65
			C10.15,8.6,9.13,8.13,9.13,8.13"/>
		<path class="st0" d="M4.5,23.82l-2.45-1.34v-5.64V9.41L2.1,9.37c0,0,0.58-0.4,0.98-0.62C3.7,8.4,4.72,8.01,4.73,8.01L4.9,7.94
			v7.52v5.44l1.03,0.59l1.03,0.6l1.03-0.6l1.03-0.59v-5.44l0-7.34V7.93l0.18,0.08c0,0,1.02,0.47,1.64,0.85
			c0.39,0.24,0.97,0.65,0.97,0.65l0.05,0.04v7.29l0,5.64L9.4,23.82l-2.45,1.33L4.5,23.82z M2.3,16.85v5.49l2.32,1.26l2.33,1.27
			l2.33-1.27l2.33-1.26v-5.49l0-7.16c-0.15-0.11-0.59-0.42-0.91-0.61c-0.45-0.27-1.12-0.6-1.44-0.76l0,7.14v5.58l-1.15,0.67
			l-1.15,0.67L5.8,21.71l-1.15-0.67v-5.58V8.31c-0.32,0.12-1,0.41-1.45,0.65C2.89,9.14,2.45,9.43,2.3,9.54V16.85z M9.08,8.24
			l0.05-0.11L9.08,8.24z"/>
		<polygon class="st0" points="35.86,25.06 35.62,25.06 35.62,25 36.16,25 36.16,25.06 35.92,25.06 35.92,25.69 35.86,25.69 		"/>
		<polygon class="st0" points="36.26,25 36.36,25 36.61,25.58 36.86,25 36.95,25 36.95,25.69 36.89,25.69 36.89,25.09 36.88,25.09 
			36.62,25.69 36.59,25.69 36.33,25.09 36.32,25.09 36.32,25.69 36.26,25.69 		"/>
	</g>
</g>
</svg>
